<svg width="16" height="16" viewBox="0 0 16 16" fill="none" xmlns="http://www.w3.org/2000/svg">
<path fill-rule="evenodd" clip-rule="evenodd" d="M4.536 0H11.472C14.184 0 16 1.904 16 4.736V11.2728C16 14.096 14.184 16 11.472 16H4.536C1.824 16 0 14.096 0 11.2728V4.736C0 1.904 1.824 0 4.536 0Z" fill="#FD6739"/>
<path d="M9.31908 8L10.8704 5.26761C11.0432 4.99608 11.0432 4.66343 10.8704 4.3919C10.6674 4.1263 10.3208 3.97783 9.96165 4.0027L6.02996 4.0027C5.67103 3.97897 5.325 4.12717 5.12125 4.3919C5.03979 4.51253 4.99782 4.6511 5.00009 4.79192C5.00326 4.9578 5.04995 5.12072 5.13639 5.26761L6.68293 8L5.13639 10.7324C5.04995 10.8793 5.00326 11.0422 5.00009 11.2081C4.99782 11.3489 5.03979 11.4875 5.12125 11.6081C5.325 11.8728 5.67103 12.021 6.02996 11.9973H9.96165C10.3208 12.0222 10.6674 11.8737 10.8704 11.6081C11.0432 11.3366 11.0432 11.0039 10.8704 10.7324L9.31908 8Z" fill="white"/>
</svg>
