<svg width="16" height="16" viewBox="0 0 16 16" fill="none" xmlns="http://www.w3.org/2000/svg">
<path d="M11.4721 0H4.53605C1.82402 0 0 1.90402 0 4.73605V11.2721C0 14.0962 1.82402 16.0002 4.53605 16.0002H11.4721C14.1842 16.0002 16.0002 14.0962 16.0002 11.2721V4.73605C16.0002 1.90402 14.1842 0 11.4721 0Z" fill="#58BD7D"/>
<path d="M7.05057 10.5986C6.87136 10.5986 6.69216 10.5306 6.55536 10.3938L4.65694 8.49538C4.38334 8.22178 4.38334 7.77857 4.65694 7.50577C4.93054 7.23217 5.37295 7.23137 5.64655 7.50497L7.05057 8.90898L10.353 5.60655C10.6266 5.33294 11.069 5.33294 11.3426 5.60655C11.6162 5.88015 11.6162 6.32335 11.3426 6.59696L7.54577 10.3938C7.40897 10.5306 7.22977 10.5986 7.05057 10.5986Z" fill="white"/>
</svg>
