<svg width="43" height="48" viewBox="0 0 43 48" fill="none" xmlns="http://www.w3.org/2000/svg">
<path d="M19.5505 1.08807C20.7622 0.411794 22.2378 0.411794 23.4495 1.08807L40.9495 10.8555C42.2155 11.5621 43 12.8985 43 14.3483V33.6517C43 35.1015 42.2155 36.4379 40.9495 37.1445L23.4495 46.9119C22.2378 47.5882 20.7622 47.5882 19.5505 46.9119L2.05054 37.1445C0.784537 36.4379 0 35.1015 0 33.6517V14.3483C0 12.8985 0.784535 11.5621 2.05054 10.8555L19.5505 1.08807Z" fill="#017EFA"/>
<path d="M30.2083 28.1563C30.7328 26.9398 31.0025 25.6245 31 24.295C31.0007 22.1796 30.3261 20.1218 29.0787 18.4343C27.8313 16.7467 26.0792 15.5217 24.0887 14.9452C24.0024 14.9291 23.9139 14.9291 23.8275 14.9452C23.7185 14.3963 23.4272 13.9027 23.003 13.5482C22.5788 13.1937 22.0478 13 21.5 13C20.9522 13 20.4212 13.1937 19.997 13.5482C19.5728 13.9027 19.2815 14.3963 19.1725 14.9452C19.0861 14.9291 18.9976 14.9291 18.9113 14.9452C16.9208 15.5217 15.1687 16.7467 13.9213 18.4343C12.6739 20.1218 11.9993 22.1796 12 24.295C11.9976 25.6245 12.2672 26.9398 12.7917 28.1563C12.5432 28.3835 12.3443 28.6617 12.2079 28.9727C12.0715 29.2837 12.0007 29.6206 12 29.9615C12.0003 30.4014 12.1175 30.8329 12.339 31.21C12.5605 31.5871 12.878 31.8957 13.2576 32.1026C13.6372 32.3096 14.0647 32.4072 14.4943 32.3851C14.924 32.363 15.3397 32.222 15.6971 31.9771C17.3596 33.2887 19.4002 34 21.5 34C23.5998 34 25.6404 33.2887 27.3029 31.9771C27.8019 32.3093 28.4048 32.4376 28.992 32.3368C29.5792 32.2359 30.108 31.9132 30.4734 31.4325C30.8389 30.9518 31.0145 30.3483 30.9654 29.7416C30.9163 29.1348 30.6461 28.569 30.2083 28.1563ZM21.5 14.581C21.6566 14.581 21.8096 14.6284 21.9398 14.7174C22.07 14.8063 22.1715 14.9328 22.2314 15.0807C22.2913 15.2286 22.307 15.3914 22.2765 15.5484C22.2459 15.7054 22.1705 15.8497 22.0598 15.9629C21.9491 16.0761 21.808 16.1532 21.6544 16.1844C21.5009 16.2156 21.3417 16.1996 21.197 16.1383C21.0524 16.0771 20.9287 15.9733 20.8418 15.8402C20.7548 15.7071 20.7083 15.5506 20.7083 15.3905C20.7083 15.1758 20.7917 14.9699 20.9402 14.8181C21.0887 14.6662 21.29 14.581 21.5 14.581ZM14.375 30.771C14.2184 30.771 14.0654 30.7235 13.9352 30.6346C13.805 30.5456 13.7035 30.4192 13.6436 30.2713C13.5837 30.1234 13.568 29.9606 13.5986 29.8036C13.6291 29.6465 13.7045 29.5023 13.8152 29.3891C13.9259 29.2759 14.067 29.1988 14.2206 29.1675C14.3741 29.1363 14.5333 29.1523 14.678 29.2136C14.8226 29.2749 14.9463 29.3786 15.0333 29.5118C15.1202 29.6449 15.1667 29.8014 15.1667 29.9615C15.1667 30.1762 15.0833 30.3821 14.9348 30.5339C14.7863 30.6857 14.585 30.771 14.375 30.771ZM16.6313 30.6738C16.7072 30.4442 16.7473 30.2038 16.75 29.9615C16.75 29.3174 16.4998 28.6997 16.0544 28.2443C15.609 27.7888 15.0049 27.533 14.375 27.533H14.2642C13.8167 26.5147 13.5847 25.4113 13.5833 24.295C13.5834 22.5334 14.1454 20.8199 15.1841 19.4145C16.2227 18.0091 17.6814 16.9885 19.3388 16.5076H19.3863C19.5856 16.9054 19.8884 17.2392 20.2613 17.4723C20.6343 17.7054 21.0629 17.8288 21.5 17.8288C21.9371 17.8288 22.3657 17.7054 22.7387 17.4723C23.1116 17.2392 23.4144 16.9054 23.6137 16.5076C23.6137 16.5076 23.6137 16.5076 23.6612 16.5076C25.3186 16.9885 26.7773 18.0091 27.8159 19.4145C28.8546 20.8199 29.4166 22.5334 29.4167 24.295C29.4143 25.4112 29.1824 26.5144 28.7358 27.533H28.625C27.9951 27.533 27.391 27.7888 26.9456 28.2443C26.5002 28.6997 26.25 29.3174 26.25 29.9615C26.2527 30.2038 26.2928 30.4442 26.3687 30.6738C24.9777 31.7832 23.2641 32.3857 21.5 32.3857C19.7359 32.3857 18.0223 31.7832 16.6313 30.6738ZM28.625 30.771C28.4684 30.771 28.3154 30.7235 28.1852 30.6346C28.055 30.5456 27.9535 30.4192 27.8936 30.2713C27.8337 30.1234 27.818 29.9606 27.8485 29.8036C27.8791 29.6465 27.9545 29.5023 28.0652 29.3891C28.1759 29.2759 28.317 29.1988 28.4705 29.1675C28.6241 29.1363 28.7833 29.1523 28.9279 29.2136C29.0726 29.2749 29.1962 29.3786 29.2832 29.5118C29.3702 29.6449 29.4167 29.8014 29.4167 29.9615C29.4167 30.1762 29.3332 30.3821 29.1848 30.5339C29.0363 30.6857 28.835 30.771 28.625 30.771Z" fill="white"/>
<path d="M22.9488 21.057C22.7963 20.8043 22.5832 20.5956 22.3296 20.4509C22.076 20.3062 21.7904 20.2302 21.5 20.2302C21.2096 20.2302 20.924 20.3062 20.6704 20.4509C20.4169 20.5956 20.2037 20.8043 20.0513 21.057L17.7475 24.8617C17.5844 25.1251 17.4936 25.4285 17.4844 25.7401C17.4752 26.0517 17.548 26.3602 17.6952 26.6332C17.8425 26.9061 18.0587 27.1337 18.3214 27.292C18.584 27.4503 18.8835 27.5336 19.1884 27.5331H23.8117C24.1166 27.5336 24.416 27.4503 24.6787 27.292C24.9413 27.1337 25.1576 26.9061 25.3048 26.6332C25.4521 26.3602 25.5249 26.0517 25.5157 25.7401C25.5065 25.4285 25.4156 25.1251 25.2525 24.8617L22.9488 21.057ZM23.9146 25.8169C23.9054 25.8367 23.8908 25.8534 23.8725 25.8649C23.8543 25.8764 23.8331 25.8822 23.8117 25.8817H19.1884C19.1669 25.8822 19.1458 25.8764 19.1275 25.8649C19.1092 25.8534 19.0946 25.8367 19.0854 25.8169C19.0725 25.7979 19.0656 25.7753 19.0656 25.7522C19.0656 25.729 19.0725 25.7064 19.0854 25.6874L21.3971 21.9151C21.4075 21.8966 21.4225 21.8813 21.4406 21.8706C21.4586 21.8599 21.4792 21.8543 21.5 21.8543C21.5209 21.8543 21.5414 21.8599 21.5595 21.8706C21.5775 21.8813 21.5925 21.8966 21.6029 21.9151L23.9146 25.6874C23.9251 25.6979 23.9335 25.7105 23.9392 25.7244C23.9449 25.7383 23.9479 25.7533 23.9479 25.7683C23.9479 25.7834 23.9449 25.7984 23.9392 25.8123C23.9335 25.8261 23.9251 25.8387 23.9146 25.8493V25.8169Z" fill="white"/>
</svg>
