<svg width="43" height="48" viewBox="0 0 43 48" fill="none" xmlns="http://www.w3.org/2000/svg">
<path d="M19.5505 1.08807C20.7622 0.411794 22.2378 0.411794 23.4495 1.08807L40.9495 10.8555C42.2155 11.5621 43 12.8985 43 14.3483V33.6517C43 35.1015 42.2155 36.4379 40.9495 37.1445L23.4495 46.9119C22.2378 47.5882 20.7622 47.5882 19.5505 46.9119L2.05054 37.1445C0.784537 36.4379 0 35.1015 0 33.6517V14.3483C0 12.8985 0.784535 11.5621 2.05054 10.8555L19.5505 1.08807Z" fill="#017EFA"/>
<path d="M29.9873 25.7725C29.9906 25.7437 29.9906 25.7147 29.9873 25.6859C30.0042 25.6 30.0042 25.5119 29.9873 25.426C29.9692 25.3459 29.9377 25.2688 29.894 25.1977L22.2554 13.3856C22.1802 13.2681 22.0734 13.1708 21.9454 13.1032C21.8175 13.0356 21.6727 13 21.5255 13C21.3782 13 21.2335 13.0356 21.1055 13.1032C20.9775 13.1708 20.8707 13.2681 20.7956 13.3856L13.1569 25.1977C13.1132 25.2688 13.0817 25.3459 13.0636 25.426H13.0127C12.9958 25.5119 12.9958 25.6 13.0127 25.6859C13.0094 25.7147 13.0094 25.7437 13.0127 25.7725C13.0306 25.8329 13.0563 25.891 13.089 25.9458L13.14 26.0245C13.1375 26.0402 13.1375 26.0561 13.14 26.0717L20.7786 34.7339C20.8358 34.7898 20.9016 34.8375 20.9738 34.8757L21.0587 34.9308C21.1681 34.9764 21.2867 35 21.4066 35C21.5266 35 21.6452 34.9764 21.7546 34.9308L21.8395 34.8757C21.9117 34.8375 21.9775 34.7898 22.0347 34.7339L29.6733 26.0717V26.0245L29.7242 25.9458C29.8231 25.9041 29.9124 25.8453 29.9873 25.7725ZM21.5 16.5198C21.617 16.5184 21.7324 16.4946 21.8391 16.4499C21.9457 16.4052 22.0412 16.3405 22.1196 16.2599L27.8061 25.0402L22.3487 26.1662V25.9694C22.3487 25.7605 22.2593 25.5602 22.1001 25.4126C21.941 25.2649 21.7251 25.1819 21.5 25.1819C21.2749 25.1819 21.059 25.2649 20.8999 25.4126C20.7407 25.5602 20.6513 25.7605 20.6513 25.9694V26.1662L15.1939 25.0402L20.8804 16.2599C20.9588 16.3405 21.0543 16.4052 21.1609 16.4499C21.2676 16.4946 21.383 16.5184 21.5 16.5198ZM20.6513 27.7806V32.0329L16.0681 26.8356L20.6513 27.7806ZM22.3487 27.7806L26.9319 26.8356L22.3487 32.0329V27.7806Z" fill="white"/>
<path d="M21.5 20.1736C21.7251 20.1736 21.941 20.0906 22.1001 19.9429C22.2593 19.7953 22.3487 19.595 22.3487 19.3861V18.6538C22.3487 18.4449 22.2593 18.2446 22.1001 18.0969C21.941 17.9493 21.7251 17.8663 21.5 17.8663C21.2749 17.8663 21.059 17.9493 20.8998 18.0969C20.7407 18.2446 20.6512 18.4449 20.6512 18.6538V19.3861C20.6512 19.595 20.7407 19.7953 20.8998 19.9429C21.059 20.0906 21.2749 20.1736 21.5 20.1736Z" fill="white"/>
<path d="M21.5 23.8352C21.7251 23.8352 21.941 23.7523 22.1001 23.6046C22.2593 23.4569 22.3487 23.2566 22.3487 23.0477V22.3154C22.3487 22.1066 22.2593 21.9063 22.1001 21.7586C21.941 21.6109 21.7251 21.5279 21.5 21.5279C21.2749 21.5279 21.059 21.6109 20.8998 21.7586C20.7407 21.9063 20.6512 22.1066 20.6512 22.3154V23.0477C20.6512 23.2566 20.7407 23.4569 20.8998 23.6046C21.059 23.7523 21.2749 23.8352 21.5 23.8352Z" fill="white"/>
</svg>
