<svg width="43" height="48" viewBox="0 0 43 48" fill="none" xmlns="http://www.w3.org/2000/svg">
<path d="M19.5505 1.08807C20.7622 0.411794 22.2378 0.411794 23.4495 1.08807L40.9495 10.8555C42.2155 11.5621 43 12.8985 43 14.3483V33.6517C43 35.1015 42.2155 36.4379 40.9495 37.1445L23.4495 46.9119C22.2378 47.5882 20.7622 47.5882 19.5505 46.9119L2.05054 37.1445C0.784537 36.4379 0 35.1015 0 33.6517V14.3483C0 12.8985 0.784535 11.5621 2.05054 10.8555L19.5505 1.08807Z" fill="#017EFA"/>
<path d="M28.4 18.2857H27.6V17.5C27.6 16.0413 27.01 14.6424 25.9598 13.6109C24.9096 12.5795 23.4852 12 22 12C20.5148 12 19.0904 12.5795 18.0402 13.6109C16.99 14.6424 16.4 16.0413 16.4 17.5V18.2857H15.6C15.1757 18.2857 14.7687 18.4513 14.4686 18.746C14.1686 19.0407 14 19.4404 14 19.8571V32.4286C14 32.8453 14.1686 33.245 14.4686 33.5397C14.7687 33.8344 15.1757 34 15.6 34H28.4C28.8243 34 29.2313 33.8344 29.5314 33.5397C29.8314 33.245 30 32.8453 30 32.4286V19.8571C30 19.4404 29.8314 19.0407 29.5314 18.746C29.2313 18.4513 28.8243 18.2857 28.4 18.2857ZM18 17.5C18 16.4581 18.4214 15.4588 19.1716 14.7221C19.9217 13.9853 20.9391 13.5714 22 13.5714C23.0609 13.5714 24.0783 13.9853 24.8284 14.7221C25.5786 15.4588 26 16.4581 26 17.5V18.2857H18V17.5ZM28.4 32.4286H15.6V19.8571H28.4V32.4286Z" fill="white"/>
<path d="M22.64 22.5286C22.5655 22.431 22.4689 22.3518 22.3578 22.2972C22.2467 22.2427 22.1242 22.2143 22 22.2143C21.8758 22.2143 21.7533 22.2427 21.6422 22.2972C21.5311 22.3518 21.4345 22.431 21.36 22.5286L18.96 25.6714C18.8561 25.8074 18.8 25.9729 18.8 26.1429C18.8 26.3129 18.8561 26.4783 18.96 26.6143L21.36 29.7571C21.4345 29.8547 21.5311 29.9339 21.6422 29.9885C21.7533 30.043 21.8758 30.0714 22 30.0714C22.1242 30.0714 22.2467 30.043 22.3578 29.9885C22.4689 29.9339 22.5655 29.8547 22.64 29.7571L25.04 26.6143C25.1439 26.4783 25.2 26.3129 25.2 26.1429C25.2 25.9729 25.1439 25.8074 25.04 25.6714L22.64 22.5286ZM22 27.9736L20.6 26.1429L22 24.3121L23.4 26.1429L22 27.9736Z" fill="white"/>
</svg>
