<svg width="43" height="48" viewBox="0 0 43 48" fill="none" xmlns="http://www.w3.org/2000/svg">
<path d="M19.5505 1.08807C20.7622 0.411794 22.2378 0.411794 23.4495 1.08807L40.9495 10.8555C42.2155 11.5621 43 12.8985 43 14.3483V33.6517C43 35.1015 42.2155 36.4379 40.9495 37.1445L23.4495 46.9119C22.2378 47.5882 20.7622 47.5882 19.5505 46.9119L2.05054 37.1445C0.784537 36.4379 0 35.1015 0 33.6517V14.3483C0 12.8985 0.784535 11.5621 2.05054 10.8555L19.5505 1.08807Z" fill="#017EFA"/>
<path d="M27.0697 17.7396C27.4575 17.7396 27.778 18.0244 27.8287 18.3939L27.8357 18.4967V32.2424C27.8357 32.6605 27.4927 32.9994 27.0697 32.9994C26.682 32.9994 26.3615 32.7146 26.3108 32.3451L26.3038 32.2424V18.4967C26.3038 18.0786 26.6467 17.7396 27.0697 17.7396Z" fill="white"/>
<path d="M30.6912 27.5737C30.9896 27.2774 31.4746 27.2763 31.7744 27.5712C32.047 27.8394 32.0727 28.2599 31.8509 28.5568L31.7769 28.6419L27.6125 32.777C27.3403 33.0473 26.9131 33.0719 26.6128 32.8507L26.5268 32.777L22.3623 28.6419C22.0639 28.3455 22.065 27.8662 22.3648 27.5712C22.6374 27.3031 23.063 27.2796 23.3623 27.5002L23.448 27.5737L27.0692 31.1692L30.6912 27.5737Z" fill="white"/>
<path d="M16.9303 15.0006C17.318 15.0006 17.6385 15.2854 17.6892 15.6549L17.6962 15.7576V29.5033C17.6962 29.9214 17.3533 30.2604 16.9303 30.2604C16.5425 30.2604 16.222 29.9756 16.1713 29.6061L16.1643 29.5033V15.7576C16.1643 15.3395 16.5073 15.0006 16.9303 15.0006Z" fill="white"/>
<path d="M16.3875 15.223C16.6597 14.9527 17.0869 14.9281 17.3872 15.1493L17.4732 15.223L21.6377 19.3581C21.9361 19.6545 21.935 20.1338 21.6352 20.4288C21.3626 20.6969 20.937 20.7204 20.6377 20.4998L20.552 20.4263L16.9302 16.8297L13.3088 20.4263C13.0375 20.6957 12.612 20.7211 12.3117 20.5019L12.2256 20.4288C11.953 20.1606 11.9273 19.7401 12.1491 19.4432L12.2231 19.3581L16.3875 15.223Z" fill="white"/>
</svg>
