<svg width="12" height="10" viewBox="0 0 12 10" fill="none" xmlns="http://www.w3.org/2000/svg">
<path d="M0 4.99993C0 4.71969 0.2052 4.48809 0.471434 4.45143L0.545448 4.44638H11.4544C11.7556 4.44638 11.9999 4.69421 11.9999 4.99993C11.9999 5.28016 11.7947 5.51177 11.5284 5.54842L11.4544 5.55347H0.545448C0.244205 5.55347 0 5.30564 0 4.99993Z" fill="#808191"/>
<path d="M6.66975 0.945804C6.45628 0.730097 6.45553 0.379612 6.66809 0.162974C6.86131 -0.0339704 7.1643 -0.0524977 7.37817 0.107825L7.43946 0.161288L11.8394 4.60737C12.0341 4.80406 12.0518 5.11265 11.8925 5.32969L11.8394 5.39186L7.4395 9.83868C7.22605 10.0544 6.88069 10.0537 6.66812 9.83706C6.47487 9.64013 6.4579 9.33257 6.61678 9.1162L6.66971 9.05423L10.6813 4.99941L6.66975 0.945804Z" fill="#808191"/>
</svg>
