<svg width="116" height="33" viewBox="0 0 116 33" fill="none" xmlns="http://www.w3.org/2000/svg">
<path d="M27.1648 26.9273H21.4852L21.5079 26.9047L27.1648 21.2477V26.9273ZM21.5644 26.8934H27.1309V21.3269L21.5644 26.8934Z" fill="#262626"/>
<path d="M5.60056 10.59V5.36292H10.8276L10.805 5.38554L5.60056 10.59ZM5.6345 5.39686V10.5108L10.7484 5.39686H5.6345Z" fill="#262626"/>
<path d="M27.1648 11.0425L21.4852 5.36292H27.1648V11.0425ZM21.5644 5.39686L27.1309 10.9633V5.39686H21.5644Z" fill="#262626"/>
<path d="M10.8276 26.9273H5.60056V21.7003L5.62318 21.7229L10.8276 26.9273ZM5.6345 26.8934H10.7484L5.6345 21.7795V26.8934Z" fill="#262626"/>
<path d="M20.0144 4.75189H12.2983L12.321 4.72926L16.1564 0.905151L20.0144 4.75189ZM12.3775 4.71795H19.9352L16.1564 0.939095L12.3775 4.71795Z" fill="#262626"/>
<path d="M27.7758 19.7769V12.5133L31.4075 16.1451L31.3962 16.1564L27.7758 19.7769ZM27.8097 12.5925V19.6977L31.3623 16.1451L27.8097 12.5925Z" fill="#262626"/>
<path d="M4.98951 20.2295L4.96689 20.2068L0.905182 16.1451L0.916497 16.1338L4.98951 12.0608V20.2295ZM0.950439 16.1451L4.95557 20.1503V12.14L0.950439 16.1451Z" fill="#262626"/>
<path d="M16.1564 31.3961L16.1451 31.3848L12.2983 27.5381H20.0144L19.9918 27.5607L16.1564 31.3961ZM12.3775 27.572L16.1564 31.3509L19.9352 27.572H12.3775Z" fill="#262626"/>
<path d="M20.6255 26.9273H11.6875L5.60056 20.8404V11.4498L11.6875 5.36292H20.6255L27.1649 11.9024V20.3878L20.6255 26.9273ZM11.6988 26.8933H20.6028L27.131 20.3652V11.9137L20.6028 5.38554H11.6988L5.62318 11.4611V20.8177L11.6988 26.8933Z" fill="#262626"/>
<path d="M27.8096 11.642V4.72923H20.8855L16.1676 0.0113146L16.1563 0L11.4271 4.72923H4.96682V11.1895L0.0113146 16.1337L0 16.145L4.9555 21.1005V27.5607H11.4158L16.1337 32.2787L16.145 32.29L20.8742 27.5607H27.787V20.6592L32.2786 16.1676L32.29 16.1563L27.8096 11.642ZM27.1308 5.39675V10.9632L21.5644 5.39675H27.1308ZM16.1563 0.939058L19.9351 4.71791H12.3774L16.1563 0.939058ZM5.63434 10.5106V5.39675H10.7482L5.63434 10.5106ZM11.6986 5.39675H20.6027L27.1308 11.9249V15.8621L21.4512 15.8848L16.0884 10.522L10.5672 16.0432H5.63434V11.461L11.6986 5.39675ZM15.8621 15.5227C15.5453 15.5227 15.2851 15.749 15.2286 16.0432H12.9318C12.9771 14.3348 14.3687 12.9545 16.0884 12.9545C17.8308 12.9545 19.2563 14.3687 19.2563 16.1224C19.2563 17.8647 17.8421 19.2903 16.0884 19.2903C14.4253 19.2903 13.0563 18.0005 12.9318 16.3713H15.2286C15.3077 16.6428 15.5567 16.8351 15.8508 16.8351C16.2129 16.8351 16.4957 16.541 16.4957 16.1902C16.507 15.8169 16.2129 15.5227 15.8621 15.5227ZM4.9555 20.1501L0.950371 16.145L4.9555 12.1399V14.0406L3.06608 16.0658L4.9555 18.0344V20.1501ZM5.63434 26.8932V21.7793L10.7482 26.8932H5.63434ZM16.1563 31.3509L12.3774 27.5721H19.9351L16.1563 31.3509ZM27.1308 26.8932H21.5644L27.1308 21.3268V26.8932ZM20.614 26.8932H11.7099L5.63434 20.8176V16.3599H10.7369L16.0884 21.7114L21.5983 16.2016L27.1195 16.2355V20.3764L20.614 26.8932ZM27.8096 19.6976V17.91L29.4728 16.0092L27.8096 14.1877V12.5924L31.3622 16.145L27.8096 19.6976Z" fill="#262626"/>
<path d="M16.1337 23.25L13.3844 20.5007L12.8187 21.0777L16.1337 24.3927L19.46 21.0777L18.883 20.5007L16.1337 23.25Z" fill="#262626"/>
<path d="M16.1337 8.92668L18.883 11.676L19.46 11.1103L16.1337 7.79529L12.8187 11.1103L13.3844 11.676L16.1337 8.92668Z" fill="#262626"/>
<path d="M72.1205 8.11413C71.3516 7.41504 70.2563 7.08881 68.8349 7.08881H68.6484C67.2503 7.08881 66.1317 7.41504 65.3628 8.11413C64.5938 8.81321 64.2442 9.86183 64.2442 11.1901V21.886C64.2442 23.191 64.5938 24.2396 65.3628 24.962C66.1317 25.6611 67.227 25.9873 68.6484 25.9873H68.8582C70.2563 25.9873 71.3749 25.6611 72.1438 24.962C72.9128 24.2629 73.2624 23.2143 73.2624 21.886V11.1668C73.2391 9.86183 72.8895 8.81321 72.1205 8.11413ZM71.235 21.42C71.235 22.422 71.0253 23.0978 70.6758 23.4706C70.3495 23.8435 69.6971 24.0532 68.7416 24.0532C67.7862 24.0532 67.1338 23.8202 66.8075 23.4706C66.458 23.1211 66.2483 22.422 66.2483 21.42V11.6328C66.2483 10.6308 66.458 9.93174 66.8075 9.5822C67.1338 9.20935 67.7862 8.99963 68.7416 8.99963C69.6971 8.99963 70.3262 9.23266 70.6758 9.5822C71.0253 9.93174 71.235 10.6308 71.235 11.6328V21.42Z" fill="#262626"/>
<path d="M92.5104 8.30041C91.7414 7.60132 90.6462 7.27509 89.2247 7.27509H85.0303L84.7739 7.53142V25.4745L85.0303 25.7308H89.2247C90.6229 25.7308 91.7414 25.4046 92.5104 24.7055C93.2794 24.0064 93.629 22.9578 93.629 21.6296V11.3764C93.629 10.0481 93.2794 8.99949 92.5104 8.30041ZM91.6249 21.2101C91.6249 22.2121 91.4152 22.9112 91.0657 23.2607C90.7161 23.6336 90.0869 23.8433 89.1315 23.8433H86.778V9.18591H89.1315C90.0869 9.18591 90.7161 9.41894 91.0657 9.76848C91.4152 10.118 91.6249 10.8171 91.6249 11.8191V21.2101Z" fill="#262626"/>
<path d="M49.68 17.0619C49.447 16.6657 49.0975 16.3861 48.7013 16.1764C49.0742 15.9666 49.3771 15.687 49.5868 15.2909C49.8898 14.7316 50.0296 14.0791 50.0296 13.3567V11.1197C50.0296 10.0011 49.7033 9.04573 49.0276 8.36995C48.2586 7.64757 47.2099 7.27472 45.8584 7.29803H41.5241L41.2444 7.55436V25.4974L41.5008 25.7538H45.7652C47.1167 25.7538 48.2353 25.4042 49.0042 24.6819C49.7266 23.9828 50.0995 23.0274 50.0995 21.9321V18.996C50.1228 18.2736 49.983 17.6211 49.68 17.0619ZM43.2718 9.16224H45.7885C46.6507 9.16224 47.2099 9.37197 47.5362 9.72151C47.8391 10.071 48.0255 10.6536 48.0255 11.5158V13.5898C48.0255 14.1956 47.8391 14.5685 47.5129 14.8248C47.1866 15.0811 46.6041 15.2443 45.7885 15.2443H43.2718V9.16224ZM48.0954 21.5127C48.0954 22.3982 47.9323 22.9574 47.6061 23.307C47.2798 23.6565 46.7206 23.8663 45.8584 23.8663H43.2718V17.1784H45.8817C46.6973 17.1784 47.2565 17.3415 47.6061 17.5978C47.9323 17.8542 48.1187 18.227 48.1187 18.8329V21.5127H48.0954Z" fill="#262626"/>
<path d="M113.716 16.34L110.989 14.8253C110.267 14.4525 109.824 14.1262 109.684 13.9398C109.475 13.6835 109.358 13.3106 109.358 12.7281V11.4697C109.358 10.5143 109.568 9.88513 109.871 9.53559C110.197 9.18605 110.78 8.95302 111.665 8.95302C112.551 8.95302 113.157 9.16275 113.46 9.53559C113.762 9.88513 113.972 10.5143 113.972 11.4697V13.8233L114.229 14.0796H115.72L115.976 13.8233V11.0736C115.976 9.81522 115.603 8.7899 114.788 8.09082C114.019 7.41504 112.97 7.08881 111.665 7.08881H111.619C110.314 7.08881 109.265 7.41504 108.496 8.09082C107.704 8.7899 107.308 9.81522 107.331 11.0736V13.1475C107.331 13.8932 107.517 14.5224 107.89 15.035C108.216 15.4778 108.776 15.9205 109.591 16.3633L112.271 17.8081C112.993 18.2042 113.46 18.5537 113.623 18.7868C113.856 19.0664 113.995 19.4858 113.995 20.0684V21.4899C113.995 22.4453 113.809 23.0745 113.483 23.4473C113.133 23.8435 112.551 24.0532 111.665 24.0532C110.78 24.0532 110.197 23.8435 109.871 23.4473C109.545 23.0745 109.335 22.4453 109.335 21.4899V18.9499L109.079 18.6936H107.587L107.331 18.9499V21.9093C107.331 23.191 107.68 24.2396 108.426 24.9387C109.172 25.6378 110.267 25.964 111.642 25.964H111.689C113.063 25.964 114.159 25.6378 114.904 24.9387C115.65 24.2396 116 23.2143 116 21.9093V19.6257C116.023 18.2508 115.184 17.1323 113.716 16.34Z" fill="#262626"/>
<path d="M104.744 7.27509H103.253L102.997 7.53142V21.3965C102.997 22.4218 102.787 23.1209 102.484 23.4472C102.181 23.7967 101.552 24.0297 100.62 24.0297C99.6643 24.0297 99.0584 23.7967 98.7555 23.4472C98.4525 23.1209 98.2428 22.4218 98.2428 21.3965V7.55472L97.9865 7.29839H96.4951L96.2388 7.55472V21.8859C96.2388 23.1908 96.5883 24.2395 97.3573 24.9385C98.103 25.6376 99.1982 25.9639 100.596 25.9639H100.69C102.064 25.9639 103.16 25.6376 103.929 24.9385C104.674 24.2395 105.047 23.1908 105.047 21.8859V7.55472L104.744 7.27509Z" fill="#262626"/>
<path d="M82.933 23.8433H77.8763V7.55472L77.62 7.27509H76.1286L75.8723 7.55472V25.4978L76.1286 25.7541H82.933L83.2126 25.4978V24.0996L82.933 23.8433Z" fill="#262626"/>
<path d="M61.3546 7.27509H59.8632L59.6069 7.55472V15.4077H54.5036V7.53142L54.2473 7.27509H52.7559L52.4996 7.55472V25.4978L52.7559 25.7541H54.2473L54.5036 25.4978V17.3186H59.6069V25.4745L59.8865 25.7541H61.3546L61.611 25.4978V7.55472L61.3546 7.27509Z" fill="#262626"/>
</svg>
