<svg width="22" height="22" viewBox="0 0 22 22" fill="none" xmlns="http://www.w3.org/2000/svg">
<path d="M20.2779 15.878C20.8397 14.6036 21.1285 13.2256 21.1259 11.8328C21.1267 9.61674 20.404 7.46096 19.0678 5.69306C17.7315 3.92515 15.8547 2.64175 13.7224 2.03787C13.6299 2.021 13.5351 2.021 13.4426 2.03787C13.3258 1.46274 13.0138 0.945679 12.5594 0.574283C12.105 0.202886 11.5362 0 10.9493 0C10.3624 0 9.79363 0.202886 9.33924 0.574283C8.88485 0.945679 8.57283 1.46274 8.45605 2.03787C8.36352 2.021 8.26871 2.021 8.17619 2.03787C6.04396 2.64175 4.16713 3.92515 2.83087 5.69306C1.49461 7.46096 0.77196 9.61674 0.772723 11.8328C0.770082 13.2256 1.05896 14.6036 1.62077 15.878C1.35461 16.1161 1.14155 16.4075 0.995441 16.7333C0.84933 17.0592 0.773446 17.4121 0.772723 17.7692C0.773062 18.23 0.898567 18.6821 1.13584 19.0772C1.3731 19.4722 1.71322 19.7955 2.11987 20.0123C2.52652 20.2291 2.98443 20.3314 3.44469 20.3082C3.90495 20.2851 4.35027 20.1374 4.73311 19.8808C6.51404 21.2548 8.69999 22 10.9493 22C13.1986 22 15.3846 21.2548 17.1655 19.8808C17.7001 20.2288 18.3459 20.3632 18.9749 20.2576C19.6039 20.1519 20.1703 19.8138 20.5619 19.3102C20.9534 18.8067 21.1415 18.1745 21.0889 17.5388C21.0363 16.9031 20.7468 16.3104 20.2779 15.878ZM10.9493 1.65625C11.117 1.65625 11.281 1.70598 11.4205 1.79917C11.5599 1.89235 11.6686 2.0248 11.7328 2.17976C11.797 2.33472 11.8138 2.50524 11.7811 2.66974C11.7483 2.83425 11.6676 2.98535 11.549 3.10396C11.4304 3.22256 11.2793 3.30333 11.1148 3.33605C10.9503 3.36877 10.7797 3.35198 10.6248 3.28779C10.4698 3.2236 10.3374 3.11491 10.2442 2.97545C10.151 2.83598 10.1013 2.67202 10.1013 2.5043C10.1013 2.27938 10.1906 2.06367 10.3497 1.90463C10.5087 1.74559 10.7244 1.65625 10.9493 1.65625ZM3.31687 18.6172C3.14914 18.6172 2.98518 18.5675 2.84572 18.4743C2.70626 18.3811 2.59756 18.2487 2.53338 18.0937C2.46919 17.9388 2.45239 17.7682 2.48512 17.6037C2.51784 17.4392 2.59861 17.2881 2.71721 17.1695C2.83581 17.0509 2.98692 16.9701 3.15142 16.9374C3.31593 16.9047 3.48644 16.9215 3.6414 16.9857C3.79637 17.0499 3.92881 17.1586 4.022 17.298C4.11518 17.4375 4.16492 17.6014 4.16492 17.7692C4.16492 17.9941 4.07557 18.2098 3.91653 18.3688C3.75749 18.5279 3.54179 18.6172 3.31687 18.6172ZM5.73381 18.5155C5.81515 18.2749 5.85808 18.0231 5.86102 17.7692C5.86102 17.0944 5.59297 16.4473 5.11585 15.9702C4.63873 15.4931 3.99162 15.225 3.31687 15.225H3.19814C2.71884 14.1583 2.4703 13.0023 2.46882 11.8328C2.46885 9.98736 3.07087 8.19227 4.18353 6.71994C5.2962 5.24761 6.85877 4.17842 8.63414 3.6746H8.68502C8.89852 4.09134 9.22289 4.44107 9.6224 4.68528C10.0219 4.9295 10.4811 5.05872 10.9493 5.05872C11.4176 5.05872 11.8767 4.9295 12.2762 4.68528C12.6757 4.44107 13.0001 4.09134 13.2136 3.6746C13.2136 3.6746 13.2136 3.6746 13.2645 3.6746C15.0399 4.17842 16.6024 5.24761 17.7151 6.71994C18.8278 8.19227 19.4298 9.98736 19.4298 11.8328C19.4273 13.0022 19.1788 14.158 18.7005 15.225H18.5818C17.907 15.225 17.2599 15.4931 16.7828 15.9702C16.3056 16.4473 16.0376 17.0944 16.0376 17.7692C16.0405 18.0231 16.0835 18.2749 16.1648 18.5155C14.6747 19.6777 12.8391 20.3089 10.9493 20.3089C9.05955 20.3089 7.22394 19.6777 5.73381 18.5155ZM18.5818 18.6172C18.414 18.6172 18.2501 18.5675 18.1106 18.4743C17.9711 18.3811 17.8624 18.2487 17.7983 18.0937C17.7341 17.9388 17.7173 17.7682 17.75 17.6037C17.7827 17.4392 17.8635 17.2881 17.9821 17.1695C18.1007 17.0509 18.2518 16.9701 18.4163 16.9374C18.5808 16.9047 18.7513 16.9215 18.9063 16.9857C19.0612 17.0499 19.1937 17.1586 19.2869 17.298C19.3801 17.4375 19.4298 17.6014 19.4298 17.7692C19.4298 17.9941 19.3405 18.2098 19.1814 18.3688C19.0224 18.5279 18.8067 18.6172 18.5818 18.6172Z" fill="white"/>
<path d="M12.5013 8.44072C12.338 8.17593 12.1096 7.95732 11.838 7.80569C11.5664 7.65407 11.2604 7.57447 10.9493 7.57447C10.6382 7.57447 10.3323 7.65407 10.0607 7.80569C9.78903 7.95732 9.5607 8.17593 9.3974 8.44072L6.92958 12.4265C6.75488 12.7025 6.65752 13.0203 6.64766 13.3468C6.63781 13.6732 6.71582 13.9964 6.87355 14.2823C7.03128 14.5683 7.26294 14.8067 7.54431 14.9726C7.82567 15.1384 8.14642 15.2256 8.47303 15.2251H13.4256C13.7522 15.2256 14.073 15.1384 14.3544 14.9726C14.6357 14.8067 14.8674 14.5683 15.0251 14.2823C15.1828 13.9964 15.2609 13.6732 15.251 13.3468C15.2411 13.0203 15.1438 12.7025 14.9691 12.4265L12.5013 8.44072ZM13.5359 13.4272C13.526 13.448 13.5104 13.4655 13.4908 13.4775C13.4713 13.4896 13.4486 13.4957 13.4256 13.4951H8.47303C8.45006 13.4957 8.42742 13.4896 8.40785 13.4775C8.38828 13.4655 8.37262 13.448 8.36278 13.4272C8.34892 13.4073 8.34149 13.3837 8.34149 13.3594C8.34149 13.3351 8.34892 13.3115 8.36278 13.2916L10.8391 9.33965C10.8502 9.32027 10.8663 9.30418 10.8857 9.29299C10.905 9.2818 10.927 9.2759 10.9493 9.2759C10.9717 9.2759 10.9937 9.2818 11.013 9.29299C11.0324 9.30418 11.0484 9.32027 11.0596 9.33965L13.5359 13.2916C13.5472 13.3026 13.5561 13.3158 13.5622 13.3304C13.5684 13.3449 13.5715 13.3606 13.5715 13.3764C13.5715 13.3922 13.5684 13.4078 13.5622 13.4224C13.5561 13.4369 13.5472 13.4501 13.5359 13.4612V13.4272Z" fill="white"/>
</svg>
