<svg width="16" height="22" viewBox="0 0 16 22" fill="none" xmlns="http://www.w3.org/2000/svg">
<path d="M15.9881 12.7725C15.9912 12.7437 15.9912 12.7147 15.9881 12.6859C16.004 12.6 16.004 12.5119 15.9881 12.426C15.971 12.3459 15.9414 12.2688 15.9002 12.1977L8.71094 0.385628C8.64021 0.26812 8.53968 0.170777 8.41924 0.103165C8.29879 0.0355531 8.16257 0 8.02396 0C7.88536 0 7.74914 0.0355531 7.62869 0.103165C7.50825 0.170777 7.40772 0.26812 7.33699 0.385628L0.147713 12.1977C0.106554 12.2688 0.0769079 12.3459 0.0598444 12.426H0.0119159C-0.00397198 12.5119 -0.00397198 12.6 0.0119159 12.6859C0.00880927 12.7147 0.00880927 12.7437 0.0119159 12.7725C0.0288081 12.8329 0.052943 12.891 0.0838088 12.9458L0.131737 13.0245C0.129443 13.0402 0.129443 13.0561 0.131737 13.0717L7.32101 21.7339C7.37489 21.7898 7.43679 21.8375 7.50474 21.8756L7.58462 21.9308C7.6876 21.9764 7.79922 22 7.91213 22C8.02504 22 8.13666 21.9764 8.23964 21.9308L8.31952 21.8756C8.38747 21.8375 8.44937 21.7898 8.50325 21.7339L15.6925 13.0717V13.0245L15.7405 12.9458C15.8335 12.9041 15.9175 12.8453 15.9881 12.7725ZM8 3.51975C8.11012 3.5184 8.21877 3.49462 8.31912 3.4499C8.41947 3.40518 8.50935 3.34049 8.58313 3.25989L13.9351 12.0402L8.79881 13.1662V12.9694C8.79881 12.7605 8.71465 12.5602 8.56484 12.4126C8.41504 12.2649 8.21186 12.1819 8 12.1819C7.78814 12.1819 7.58496 12.2649 7.43516 12.4126C7.28535 12.5602 7.20119 12.7605 7.20119 12.9694V13.1662L2.06485 12.0402L7.41687 3.25989C7.49065 3.34049 7.58053 3.40518 7.68088 3.4499C7.78123 3.49462 7.88988 3.5184 8 3.51975ZM7.20119 14.7806V19.0329L2.88763 13.8356L7.20119 14.7806ZM8.79881 14.7806L13.1124 13.8356L8.79881 19.0329V14.7806Z" fill="#70768A"/>
<path d="M7.99998 7.17362C8.21184 7.17362 8.41502 7.09065 8.56482 6.94297C8.71463 6.79529 8.79879 6.595 8.79879 6.38615V5.6538C8.79879 5.44495 8.71463 5.24466 8.56482 5.09698C8.41502 4.9493 8.21184 4.86633 7.99998 4.86633C7.78812 4.86633 7.58494 4.9493 7.43514 5.09698C7.28533 5.24466 7.20117 5.44495 7.20117 5.6538V6.38615C7.20117 6.595 7.28533 6.79529 7.43514 6.94297C7.58494 7.09065 7.78812 7.17362 7.99998 7.17362Z" fill="#70768A"/>
<path d="M7.99998 10.8354C8.21184 10.8354 8.41502 10.7524 8.56482 10.6047C8.71463 10.457 8.79879 10.2567 8.79879 10.0479V9.31554C8.79879 9.1067 8.71463 8.9064 8.56482 8.75872C8.41502 8.61104 8.21184 8.52808 7.99998 8.52808C7.78812 8.52808 7.58494 8.61104 7.43514 8.75872C7.28533 8.9064 7.20117 9.1067 7.20117 9.31554V10.0479C7.20117 10.2567 7.28533 10.457 7.43514 10.6047C7.58494 10.7524 7.78812 10.8354 7.99998 10.8354Z" fill="#70768A"/>
</svg>
