<svg width="21" height="22" viewBox="0 0 21 22" fill="none" xmlns="http://www.w3.org/2000/svg">
<path fill-rule="evenodd" clip-rule="evenodd" d="M12.0026 14.6201C13.236 14.6201 14.2399 15.6155 14.2399 16.839V19.9858C14.2399 20.2487 14.451 20.4595 14.7214 20.4656H16.6739C18.2126 20.4656 19.4634 19.2318 19.4634 17.7157V8.79091C19.4562 8.26917 19.2073 7.77812 18.7801 7.45178L12.0262 2.07275C11.1196 1.35562 9.8514 1.35562 8.94173 2.0748L2.23396 7.44974C1.7904 7.78631 1.54147 8.27736 1.53634 8.8083V17.7157C1.53634 19.2318 2.78714 20.4656 4.32579 20.4656H6.29673C6.57435 20.4656 6.79971 20.2456 6.79971 19.9756C6.79971 19.9162 6.80688 19.8569 6.81918 19.8006V16.839C6.81918 15.6226 7.81694 14.6283 9.0411 14.6201H12.0026ZM16.6739 22.0001H14.703C13.5741 21.9735 12.7033 21.0886 12.7033 19.9858V16.839C12.7033 16.4615 12.3889 16.1546 12.0027 16.1546H9.04624C8.66823 16.1567 8.35579 16.4646 8.35579 16.839V19.9756C8.35579 20.0523 8.34554 20.126 8.32403 20.1955C8.2134 21.2083 7.34675 22.0001 6.29674 22.0001H4.3258C1.93997 22.0001 -0.000244141 20.0779 -0.000244141 17.7157V8.80116C0.00999986 7.78428 0.479175 6.85333 1.28948 6.24054L7.98393 0.874814C9.45804 -0.291426 11.512 -0.291426 12.983 0.872768L19.7256 6.24361C20.5175 6.84617 20.9866 7.77507 21 8.77967V17.7157C21 20.0779 19.0597 22.0001 16.6739 22.0001Z" fill="#808191"/>
</svg>
